# xmcd
# Copyright (C) 1995-1998 Ti Kan
#
# Track frame offsets:
#       150
#       11700
#       30975
#       55475
#       76387
#       93825
#       111472
#       127650
#       145425
#       164550
#       178575
#
# Disc length: 2532 seconds
#
# Revision: 0
# Processed by: cddbd v1.4PL0 Copyright (c) Steve Scherf et al.
# Submitted via: CD-Transfer v1.0
#
DISCID=8d09e20b
DTITLE=Max - Pictureplay
DYEAR=2000
DGENRE=
TTITLE0=This Time
TTITLE1=It's Not The End
TTITLE2=You Don't Know
TTITLE3=Lio
TTITLE4=Back Home
TTITLE5=Love Is Around
TTITLE6=The Door With The 7 Locks
TTITLE7=Whenever I Meet You
TTITLE8=Out Of The Light
TTITLE9=I Don't Mind
TTITLE10=Who's Who
EXTD=
EXTT0=
EXTT1=
EXTT2=
EXTT3=
EXTT4=
EXTT5=
EXTT6=
EXTT7=
EXTT8=
EXTT9=
EXTT10=
PLAYORDER=
